# xmcd CD database file generated by Grip 2.8
# 
# Track frame offsets:
#       182
#       11820
#       24192
#       34560
#       47662
#       55610
#       68147
#       80167
#       89387
#       100395
# 
# Disc length: 1524 seconds
# 
# Revision: 3
# Processed by: cddbd v1.4b41PL1 Copyright (c) Steve Scherf et al.
# Submitted via: Grip 2.8
# 
DISCID=7505f20a
DTITLE=Johnny Cash - The Ultimate
DYEAR=1900
DGENRE=
TTITLE0=I Walk the Line
TTITLE1=Ring of Fire
TTITLE2=Thing Called Love
TTITLE3=Ballad of Ira Hayes
TTITLE4=Five Feet High and Rising
TTITLE5=Folsom Prisom Blues
TTITLE6=The Ways of a Woman in Love
TTITLE7=I got Stripes
TTITLE8=Cry, Cry, Cry
TTITLE9=Tennessee Flat Top Box
EXTD=
EXTT0=
EXTT1=
EXTT2=
EXTT3=
EXTT4=
EXTT5=
EXTT6=
EXTT7=
EXTT8=
EXTT9=
PLAYORDER=
